<?xml version="1.0" standalone="no"?><!DOCTYPE svg PUBLIC "-//W3C//DTD SVG 1.1//EN" "http://www.w3.org/Graphics/SVG/1.1/DTD/svg11.dtd"><svg t="1495716329793" class="icon" style="" viewBox="0 0 1024 1024" version="1.1" xmlns="http://www.w3.org/2000/svg" p-id="7790" xmlns:xlink="http://www.w3.org/1999/xlink" width="200" height="200"><defs><style type="text/css"></style></defs><path d="M512 66.192561c-246.212588 0-445.807439 199.594851-445.807439 445.807439S265.787412 957.806415 512 957.806415 957.807439 758.211565 957.807439 511.998977 758.212588 66.192561 512 66.192561z m27.882024 222.042096l-6.259564 315.234591h-44.951795l-6.259564-315.234591h57.470923z m-1.992377 437.146175c-7.207146 6.922666-15.83771 10.384511-25.89067 10.384511-10.05296 0-18.682501-3.461845-25.89067-10.384511-7.207146-6.922666-10.81123-15.505136-10.81123-25.747407 0-10.05296 3.604084-18.587334 10.81123-25.605168 7.207146-7.017834 15.83771-10.526751 25.89067-10.526751 10.05296 0 18.682501 3.508917 25.89067 10.526751 7.207146 7.017834 10.81123 15.553231 10.81123 25.605168 0 10.241248-3.603061 18.823718-10.81123 25.747407z" fill="#000333" p-id="7791"></path></svg>