<?xml version="1.0" standalone="no"?><!DOCTYPE svg PUBLIC "-//W3C//DTD SVG 1.1//EN" "http://www.w3.org/Graphics/SVG/1.1/DTD/svg11.dtd"><svg t="1495716160187" class="icon" style="" viewBox="0 0 1024 1024" version="1.1" xmlns="http://www.w3.org/2000/svg" p-id="2019" xmlns:xlink="http://www.w3.org/1999/xlink" width="200" height="200"><defs><style type="text/css"></style></defs><path d="M510.423085 64.703651c-247.03021 0-447.289186 200.258976-447.289186 447.289186S263.392876 959.282023 510.423085 959.282023s447.289186-200.258976 447.289186-447.289186S757.453295 64.703651 510.423085 64.703651z m31.454386 746.45173h-64.844867v-62.841234h64.844867v62.841234z m-4.01136-434.531628l-5.347798 237.990323-0.668219 30.751374c0 12.032034 0.668219 24.735357 2.00568 40.777729H484.386082c1.336438-15.374152 2.00568-29.413913 2.00568-39.441291 0-2.00568-0.668219-14.039761-0.668219-32.087812l-6.016017-237.990323c-0.668219-28.077475-1.336438-48.133254-4.010337-73.53683h66.181305c-2.006703 25.403576-3.343141 45.459355-4.012383 73.53683z" fill="#FF3C00" p-id="2020"></path></svg>