<?xml version="1.0" standalone="no"?><!DOCTYPE svg PUBLIC "-//W3C//DTD SVG 1.1//EN" "http://www.w3.org/Graphics/SVG/1.1/DTD/svg11.dtd"><svg t="1495716113654" class="icon" style="" viewBox="0 0 1024 1024" version="1.1" xmlns="http://www.w3.org/2000/svg" p-id="1786" xmlns:xlink="http://www.w3.org/1999/xlink" width="200" height="200"><defs><style type="text/css"></style></defs><path d="M979.400697 318.566451c-25.995022-61.929318-62.439024-116.467894-109.841712-163.870582-47.402688-47.402688-101.941264-84.101543-163.870583-110.096566C641.465406 18.094574 574.184171 4.587357 503.589846 4.587357c-67.790941 0-132.778497 13.507218-194.962668 40.266799-60.145346 25.740169-113.66451 62.439024-160.047785 109.841713C101.941264 202.098556 65.752115 256.891986 40.011946 318.566451 13.252364 382.789447 0 450.070682 0 520.665007c0 67.536088 13.252364 132.523644 40.011946 194.707815C65.752115 775.518168 101.941264 828.782479 148.32454 875.67546a508.686909 508.686909 0 0 0 160.047785 108.567447c62.439024 26.504729 127.42658 39.757093 194.962668 39.757093 70.594326 0 137.87556-13.252364 202.098556-39.757093A516.587357 516.587357 0 0 0 869.304131 875.67546c47.402688-46.638128 83.84669-99.902439 109.841713-160.302638 26.759582-62.184171 40.266799-126.916874 40.266799-194.707815 0-70.849179-13.252364-138.130413-40.011946-202.098556z" fill="#FFB244" p-id="1787"></path><path d="M482.691887 738.819313c7.390742 7.390742 16.565455 11.213539 27.014435 11.213539s19.623693-3.822797 27.014435-11.213539c7.390742-7.645595 11.213539-16.565455 11.213539-27.014435 0-10.703833-3.822797-19.623693-11.213539-27.269288-7.390742-7.390742-16.565455-11.213539-27.014435-11.213539s-19.623693 3.822797-27.014435 11.213539c-7.390742 7.390742-11.213539 16.565455-11.21354 27.269288-0.254853 10.44898 3.567944 19.36884 11.21354 27.014435m62.184171-456.951717a9.68442 9.68442 0 0 0-7.645595-3.313091h-54.538576c-3.058238 0-5.60677 1.019413-7.900448 3.313091-2.038825 2.293678-3.058238 4.84221-2.803385 7.645595l12.232951 329.77999c0 1.529119 0.764559 2.803385 1.783973 4.07765 1.274266 1.019413 2.548532 1.529119 4.07765 1.529119h40.2668c1.529119 0 2.803385-0.509706 4.07765-1.529119 1.019413-1.019413 1.783972-2.293678 1.783972-3.822797l12.232952-329.77999c-0.509706-3.058238-1.529119-5.60677-3.567944-7.900448z" fill="#FFFFFF" p-id="1788"></path></svg>